# WaveFront *.obj file (generated by Autodesk ATF)

mtllib Arch 60.mtl

g Твердое тело2

v 0.500000 0.000000 0.866025
v 0.533204 0.000000 0.845986
v 0.565607 0.000000 0.824675
v 0.597159 0.000000 0.802123
v 0.627812 0.000000 0.778365
v 0.657521 0.000000 0.753436
v 0.686242 0.000000 0.727374
v 0.713930 0.000000 0.700217
v 0.740544 0.000000 0.672008
v 0.766044 0.000000 0.642788
v 0.790393 0.000000 0.612601
v 0.813552 0.000000 0.581492
v 0.835488 0.000000 0.549509
v 0.856167 0.000000 0.516699
v 0.875558 0.000000 0.483113
v 0.893633 0.000000 0.448799
v 0.910363 0.000000 0.413811
v 0.925724 0.000000 0.378200
v 0.939693 0.000000 0.342020
v 0.952248 0.000000 0.305326
v 0.963371 0.000000 0.268173
v 0.973045 0.000000 0.230616
v 0.981255 0.000000 0.192712
v 0.987990 0.000000 0.154519
v 0.993238 0.000000 0.116093
v 0.996993 0.000000 0.077492
v 0.999248 0.000000 0.038775
v 1.000000 0.000000 0.000000
v 1.000000 0.100000 0.000000
v 0.999248 0.100000 0.038775
v 0.996993 0.100000 0.077492
v 0.993238 0.100000 0.116093
v 0.987990 0.100000 0.154519
v 0.981255 0.100000 0.192712
v 0.973045 0.100000 0.230616
v 0.963371 0.100000 0.268173
v 0.952248 0.100000 0.305326
v 0.939693 0.100000 0.342020
v 0.925724 0.100000 0.378200
v 0.910363 0.100000 0.413811
v 0.893633 0.100000 0.448799
v 0.875558 0.100000 0.483113
v 0.856167 0.100000 0.516699
v 0.835488 0.100000 0.549509
v 0.813552 0.100000 0.581492
v 0.790393 0.100000 0.612601
v 0.766044 0.100000 0.642788
v 0.740544 0.100000 0.672008
v 0.713930 0.100000 0.700217
v 0.686242 0.100000 0.727374
v 0.657521 0.100000 0.753436
v 0.627812 0.100000 0.778365
v 0.597159 0.100000 0.802123
v 0.565607 0.100000 0.824675
v 0.533204 0.100000 0.845986
v 0.500000 0.100000 0.866025
v 0.200000 0.000000 0.346410
v 0.200000 0.100000 0.346410
v 0.400000 0.000000 -0.000000
v 0.399323 0.000000 0.023258
v 0.397295 0.000000 0.046437
v 0.393923 0.000000 0.069459
v 0.389218 0.000000 0.092246
v 0.383196 0.000000 0.114721
v 0.375877 0.000000 0.136808
v 0.367286 0.000000 0.158432
v 0.357453 0.000000 0.179520
v 0.346410 0.000000 0.200000
v 0.334195 0.000000 0.219804
v 0.320849 0.000000 0.238863
v 0.306418 0.000000 0.257115
v 0.290949 0.000000 0.274497
v 0.274497 0.000000 0.290949
v 0.257115 0.000000 0.306418
v 0.238863 0.000000 0.320849
v 0.219804 0.000000 0.334195
v 0.219804 0.100000 0.334195
v 0.238863 0.100000 0.320849
v 0.257115 0.100000 0.306418
v 0.274497 0.100000 0.290949
v 0.290949 0.100000 0.274497
v 0.306418 0.100000 0.257115
v 0.320849 0.100000 0.238863
v 0.334195 0.100000 0.219804
v 0.346410 0.100000 0.200000
v 0.357453 0.100000 0.179520
v 0.367286 0.100000 0.158432
v 0.375877 0.100000 0.136808
v 0.383196 0.100000 0.114721
v 0.389218 0.100000 0.092246
v 0.393923 0.100000 0.069459
v 0.397295 0.100000 0.046437
v 0.399323 0.100000 0.023258
v 0.400000 0.100000 -0.000000
vt -0.010000 0.000000 0.000000
vt -0.000000 0.000000 0.000000
vt -0.010000 0.003879 0.000000
vt -0.000000 0.003879 0.000000
vt -0.010000 0.007757 0.000000
vt -0.000000 0.007757 0.000000
vt -0.010000 0.011636 0.000000
vt -0.000000 0.011636 0.000000
vt -0.010000 0.015514 0.000000
vt -0.000000 0.015514 0.000000
vt -0.010000 0.019393 0.000000
vt -0.000000 0.019393 0.000000
vt -0.010000 0.023271 0.000000
vt -0.000000 0.023271 0.000000
vt -0.010000 0.027150 0.000000
vt -0.000000 0.027150 0.000000
vt -0.010000 0.031028 0.000000
vt -0.000000 0.031028 0.000000
vt -0.010000 0.034907 0.000000
vt -0.000000 0.034907 0.000000
vt -0.010000 0.038785 0.000000
vt -0.000000 0.038785 0.000000
vt -0.010000 0.042664 0.000000
vt -0.000000 0.042664 0.000000
vt -0.010000 0.046542 0.000000
vt -0.000000 0.046542 0.000000
vt -0.010000 0.050421 0.000000
vt -0.000000 0.050421 0.000000
vt -0.010000 0.054299 0.000000
vt -0.000000 0.054299 0.000000
vt -0.010000 0.058178 0.000000
vt -0.000000 0.058178 0.000000
vt -0.010000 0.062056 0.000000
vt -0.000000 0.062056 0.000000
vt -0.010000 0.065935 0.000000
vt -0.000000 0.065935 0.000000
vt -0.010000 0.069813 0.000000
vt -0.000000 0.069813 0.000000
vt -0.010000 0.073692 0.000000
vt -0.000000 0.073692 0.000000
vt -0.010000 0.077570 0.000000
vt -0.000000 0.077570 0.000000
vt -0.010000 0.081449 0.000000
vt -0.000000 0.081449 0.000000
vt -0.010000 0.085327 0.000000
vt -0.000000 0.085327 0.000000
vt -0.010000 0.089206 0.000000
vt -0.000000 0.089206 0.000000
vt -0.010000 0.093084 0.000000
vt -0.000000 0.093084 0.000000
vt -0.010000 0.096963 0.000000
vt -0.000000 0.096963 0.000000
vt -0.010000 0.100841 0.000000
vt -0.000000 0.100841 0.000000
vt -0.010000 0.104720 0.000000
vt -0.000000 0.104720 0.000000
vt 0.000000 0.000000 0.000000
vt 0.060000 0.000000 0.000000
vt 0.000000 0.010000 0.000000
vt 0.060000 0.010000 0.000000
vt -0.000000 -0.083776 0.000000
vt 0.000000 -0.086103 0.000000
vt 0.010000 -0.083776 0.000000
vt 0.010000 -0.086103 0.000000
vt 0.000000 -0.088430 0.000000
vt 0.010000 -0.088430 0.000000
vt 0.000000 -0.090757 0.000000
vt 0.010000 -0.090757 0.000000
vt 0.000000 -0.093084 0.000000
vt 0.010000 -0.093084 0.000000
vt 0.000000 -0.095411 0.000000
vt 0.010000 -0.095411 0.000000
vt 0.000000 -0.097738 0.000000
vt 0.010000 -0.097738 0.000000
vt 0.000000 -0.100066 0.000000
vt 0.010000 -0.100066 0.000000
vt 0.000000 -0.102393 0.000000
vt 0.010000 -0.102393 0.000000
vt 0.000000 -0.104720 0.000000
vt 0.010000 -0.104720 0.000000
vt 0.000000 -0.107047 0.000000
vt 0.010000 -0.107047 0.000000
vt 0.000000 -0.109374 0.000000
vt 0.010000 -0.109374 0.000000
vt 0.000000 -0.111701 0.000000
vt 0.010000 -0.111701 0.000000
vt 0.000000 -0.114028 0.000000
vt 0.010000 -0.114028 0.000000
vt 0.000000 -0.116355 0.000000
vt 0.010000 -0.116355 0.000000
vt 0.000000 -0.118682 0.000000
vt 0.010000 -0.118682 0.000000
vt 0.000000 -0.121009 0.000000
vt 0.010000 -0.121009 0.000000
vt 0.000000 -0.123337 0.000000
vt 0.010000 -0.123337 0.000000
vt 0.010000 -0.125664 0.000000
vt 0.000000 -0.125664 0.000000
vt 0.000000 0.000000 0.000000
vt 0.060000 0.000000 0.000000
vt 0.000000 0.010000 0.000000
vt 0.060000 0.010000 0.000000
vt -0.034734 0.039839 0.000000
vt -0.034734 -0.020161 0.000000
vt -0.030857 0.039764 0.000000
vt -0.032408 -0.020229 0.000000
vt -0.026985 0.039538 0.000000
vt -0.023125 0.039163 0.000000
vt -0.030090 -0.020432 0.000000
vt -0.019282 0.038638 0.000000
vt -0.027788 -0.020769 0.000000
vt -0.015463 0.037964 0.000000
vt -0.011673 0.037143 0.000000
vt -0.025509 -0.021239 0.000000
vt -0.007917 0.036176 0.000000
vt -0.004202 0.035064 0.000000
vt -0.023262 -0.021842 0.000000
vt -0.000532 0.033808 0.000000
vt -0.021053 -0.022574 0.000000
vt 0.003086 0.032411 0.000000
vt 0.006647 0.030875 0.000000
vt -0.018891 -0.023433 0.000000
vt 0.010146 0.029202 0.000000
vt 0.013577 0.027395 0.000000
vt 0.016936 0.025455 0.000000
vt 0.020217 0.023388 0.000000
vt 0.023415 0.021194 0.000000
vt 0.026526 0.018878 0.000000
vt 0.029545 0.016443 0.000000
vt 0.032467 0.013893 0.000000
vt 0.035288 0.011232 0.000000
vt -0.016782 -0.024416 0.000000
vt 0.038003 0.008463 0.000000
vt 0.040609 0.005591 0.000000
vt 0.043102 0.002620 0.000000
vt 0.045478 -0.000445 0.000000
vt 0.047733 -0.003601 0.000000
vt 0.049865 -0.006841 0.000000
vt 0.051868 -0.010161 0.000000
vt -0.014734 -0.025520 0.000000
vt -0.012754 -0.026742 0.000000
vt -0.010848 -0.028076 0.000000
vt -0.009023 -0.029519 0.000000
vt -0.007284 -0.031066 0.000000
vt -0.005639 -0.032712 0.000000
vt -0.004092 -0.034450 0.000000
vt -0.002649 -0.036275 0.000000
vt -0.001315 -0.038181 0.000000
vt -0.000093 -0.040161 0.000000
vt 0.034734 0.039839 0.000000
vt 0.030857 0.039764 0.000000
vt 0.034734 -0.020161 0.000000
vt 0.032408 -0.020229 0.000000
vt 0.026985 0.039538 0.000000
vt 0.023125 0.039163 0.000000
vt 0.030090 -0.020432 0.000000
vt 0.019282 0.038638 0.000000
vt 0.027788 -0.020769 0.000000
vt 0.015463 0.037964 0.000000
vt 0.011673 0.037143 0.000000
vt 0.025509 -0.021239 0.000000
vt 0.007917 0.036176 0.000000
vt 0.004202 0.035064 0.000000
vt 0.023262 -0.021842 0.000000
vt 0.000532 0.033808 0.000000
vt 0.021053 -0.022574 0.000000
vt -0.003086 0.032411 0.000000
vt -0.006647 0.030875 0.000000
vt 0.018891 -0.023433 0.000000
vt -0.010146 0.029202 0.000000
vt -0.013577 0.027395 0.000000
vt -0.016936 0.025455 0.000000
vt -0.020217 0.023388 0.000000
vt -0.023415 0.021194 0.000000
vt -0.026526 0.018878 0.000000
vt -0.029545 0.016443 0.000000
vt -0.032467 0.013893 0.000000
vt -0.035288 0.011232 0.000000
vt 0.016782 -0.024416 0.000000
vt -0.038003 0.008463 0.000000
vt -0.040609 0.005591 0.000000
vt -0.043102 0.002620 0.000000
vt -0.045478 -0.000445 0.000000
vt -0.047733 -0.003601 0.000000
vt -0.049865 -0.006841 0.000000
vt -0.051868 -0.010161 0.000000
vt 0.014734 -0.025520 0.000000
vt 0.012754 -0.026742 0.000000
vt 0.010848 -0.028076 0.000000
vt 0.009023 -0.029519 0.000000
vt 0.007284 -0.031066 0.000000
vt 0.005639 -0.032712 0.000000
vt 0.004092 -0.034450 0.000000
vt 0.002649 -0.036275 0.000000
vt 0.001315 -0.038181 0.000000
vt 0.000093 -0.040161 0.000000
vn 0.050000 -0.000000 0.086603
vn 0.050000 -0.000000 0.086603
vn 0.053320 -0.000000 0.084599
vn 0.053320 -0.000000 0.084599
vn 0.056561 -0.000000 0.082468
vn 0.056561 -0.000000 0.082468
vn 0.059716 -0.000000 0.080212
vn 0.059716 -0.000000 0.080212
vn 0.062781 -0.000000 0.077836
vn 0.062781 -0.000000 0.077836
vn 0.065752 -0.000000 0.075344
vn 0.065752 -0.000000 0.075344
vn 0.068624 -0.000000 0.072737
vn 0.068624 -0.000000 0.072737
vn 0.071393 -0.000000 0.070022
vn 0.071393 -0.000000 0.070022
vn 0.074054 -0.000000 0.067201
vn 0.074054 -0.000000 0.067201
vn 0.076604 -0.000000 0.064279
vn 0.076604 -0.000000 0.064279
vn 0.079039 -0.000000 0.061260
vn 0.079039 -0.000000 0.061260
vn 0.081355 -0.000000 0.058149
vn 0.081355 -0.000000 0.058149
vn 0.083549 -0.000000 0.054951
vn 0.083549 -0.000000 0.054951
vn 0.085617 -0.000000 0.051670
vn 0.085617 -0.000000 0.051670
vn 0.087556 -0.000000 0.048311
vn 0.087556 -0.000000 0.048311
vn 0.089363 -0.000000 0.044880
vn 0.089363 -0.000000 0.044880
vn 0.091036 -0.000000 0.041381
vn 0.091036 -0.000000 0.041381
vn 0.092572 -0.000000 0.037820
vn 0.092572 -0.000000 0.037820
vn 0.093969 -0.000000 0.034202
vn 0.093969 -0.000000 0.034202
vn 0.095225 -0.000000 0.030533
vn 0.095225 -0.000000 0.030533
vn 0.096337 -0.000000 0.026817
vn 0.096337 -0.000000 0.026817
vn 0.097304 -0.000000 0.023062
vn 0.097304 -0.000000 0.023062
vn 0.098126 -0.000000 0.019271
vn 0.098126 -0.000000 0.019271
vn 0.098799 -0.000000 0.015452
vn 0.098799 -0.000000 0.015452
vn 0.099324 -0.000000 0.011609
vn 0.099324 -0.000000 0.011609
vn 0.099699 -0.000000 0.007749
vn 0.099699 -0.000000 0.007749
vn 0.099925 -0.000000 0.003878
vn 0.099925 -0.000000 0.003878
vn 0.100000 0.000000 -0.000000
vn 0.100000 0.000000 -0.000000
vn -0.086603 0.000000 0.050000
vn -0.086603 0.000000 0.050000
vn -0.086603 0.000000 0.050000
vn -0.086603 0.000000 0.050000
vn -0.100000 0.000000 0.000000
vn -0.099831 0.000000 -0.005814
vn -0.100000 0.000000 0.000000
vn -0.099831 0.000000 -0.005814
vn -0.099324 0.000000 -0.011609
vn -0.099324 0.000000 -0.011609
vn -0.098481 0.000000 -0.017365
vn -0.098481 0.000000 -0.017365
vn -0.097304 0.000000 -0.023062
vn -0.097304 0.000000 -0.023062
vn -0.095799 0.000000 -0.028680
vn -0.095799 0.000000 -0.028680
vn -0.093969 0.000000 -0.034202
vn -0.093969 0.000000 -0.034202
vn -0.091822 0.000000 -0.039608
vn -0.091822 0.000000 -0.039608
vn -0.089363 0.000000 -0.044880
vn -0.089363 0.000000 -0.044880
vn -0.086603 0.000000 -0.050000
vn -0.086603 0.000000 -0.050000
vn -0.083549 0.000000 -0.054951
vn -0.083549 0.000000 -0.054951
vn -0.080212 0.000000 -0.059716
vn -0.080212 0.000000 -0.059716
vn -0.076604 0.000000 -0.064279
vn -0.076604 0.000000 -0.064279
vn -0.072737 0.000000 -0.068624
vn -0.072737 0.000000 -0.068624
vn -0.068624 0.000000 -0.072737
vn -0.068624 0.000000 -0.072737
vn -0.064279 0.000000 -0.076604
vn -0.064279 0.000000 -0.076604
vn -0.059716 0.000000 -0.080212
vn -0.059716 0.000000 -0.080212
vn -0.054951 0.000000 -0.083549
vn -0.054951 0.000000 -0.083549
vn -0.050000 0.000000 -0.086603
vn -0.050000 0.000000 -0.086603
vn 0.000000 0.000000 -0.100000
vn 0.000000 0.000000 -0.100000
vn 0.000000 0.000000 -0.100000
vn 0.000000 0.000000 -0.100000
vn 0.000000 0.100000 0.000000
vn 0.000000 0.100000 0.000000
vn 0.000000 0.100000 0.000000
vn 0.000000 0.100000 0.000000
vn 0.000000 0.100000 0.000000
vn 0.000000 0.100000 0.000000
vn 0.000000 0.100000 0.000000
vn 0.000000 0.100000 0.000000
vn 0.000000 0.100000 0.000000
vn 0.000000 0.100000 0.000000
vn 0.000000 0.100000 0.000000
vn 0.000000 0.100000 0.000000
vn 0.000000 0.100000 0.000000
vn 0.000000 0.100000 0.000000
vn 0.000000 0.100000 0.000000
vn 0.000000 0.100000 0.000000
vn 0.000000 0.100000 0.000000
vn 0.000000 0.100000 0.000000
vn 0.000000 0.100000 0.000000
vn 0.000000 0.100000 0.000000
vn 0.000000 0.100000 0.000000
vn 0.000000 0.100000 0.000000
vn 0.000000 0.100000 0.000000
vn 0.000000 0.100000 0.000000
vn 0.000000 0.100000 0.000000
vn 0.000000 0.100000 0.000000
vn 0.000000 0.100000 0.000000
vn 0.000000 0.100000 0.000000
vn 0.000000 0.100000 0.000000
vn 0.000000 0.100000 0.000000
vn 0.000000 0.100000 0.000000
vn 0.000000 0.100000 0.000000
vn 0.000000 0.100000 0.000000
vn 0.000000 0.100000 0.000000
vn 0.000000 0.100000 0.000000
vn 0.000000 0.100000 0.000000
vn 0.000000 0.100000 0.000000
vn 0.000000 0.100000 0.000000
vn 0.000000 0.100000 0.000000
vn 0.000000 0.100000 0.000000
vn 0.000000 0.100000 0.000000
vn 0.000000 0.100000 0.000000
vn 0.000000 0.100000 0.000000
vn 0.000000 0.100000 0.000000
vn 0.000000 0.100000 0.000000
vn 0.000000 0.100000 0.000000
vn 0.000000 0.100000 0.000000
vn 0.000000 -0.100000 0.000000
vn 0.000000 -0.100000 0.000000
vn 0.000000 -0.100000 0.000000
vn 0.000000 -0.100000 0.000000
vn 0.000000 -0.100000 0.000000
vn 0.000000 -0.100000 0.000000
vn 0.000000 -0.100000 0.000000
vn 0.000000 -0.100000 0.000000
vn 0.000000 -0.100000 0.000000
vn 0.000000 -0.100000 0.000000
vn 0.000000 -0.100000 0.000000
vn 0.000000 -0.100000 0.000000
vn 0.000000 -0.100000 0.000000
vn 0.000000 -0.100000 0.000000
vn 0.000000 -0.100000 0.000000
vn 0.000000 -0.100000 0.000000
vn 0.000000 -0.100000 0.000000
vn 0.000000 -0.100000 0.000000
vn 0.000000 -0.100000 0.000000
vn 0.000000 -0.100000 0.000000
vn 0.000000 -0.100000 0.000000
vn 0.000000 -0.100000 0.000000
vn 0.000000 -0.100000 0.000000
vn 0.000000 -0.100000 0.000000
vn 0.000000 -0.100000 0.000000
vn 0.000000 -0.100000 0.000000
vn 0.000000 -0.100000 0.000000
vn 0.000000 -0.100000 0.000000
vn 0.000000 -0.100000 0.000000
vn 0.000000 -0.100000 0.000000
vn 0.000000 -0.100000 0.000000
vn 0.000000 -0.100000 0.000000
vn 0.000000 -0.100000 0.000000
vn 0.000000 -0.100000 0.000000
vn 0.000000 -0.100000 0.000000
vn 0.000000 -0.100000 0.000000
vn 0.000000 -0.100000 0.000000
vn 0.000000 -0.100000 0.000000
vn 0.000000 -0.100000 0.000000
vn 0.000000 -0.100000 0.000000
vn 0.000000 -0.100000 0.000000
vn 0.000000 -0.100000 0.000000
vn 0.000000 -0.100000 0.000000
vn 0.000000 -0.100000 0.000000
vn 0.000000 -0.100000 0.000000
vn 0.000000 -0.100000 0.000000
vn 0.000000 -0.100000 0.000000
usemtl 190,188,186
f 56/1/1 1/2/2 55/3/3
f 55/3/3 1/2/2 2/4/4
f 55/3/3 2/4/4 54/5/5
f 54/5/5 2/4/4 3/6/6
f 54/5/5 3/6/6 53/7/7
f 53/7/7 3/6/6 4/8/8
f 53/7/7 4/8/8 52/9/9
f 52/9/9 4/8/8 5/10/10
f 52/9/9 5/10/10 51/11/11
f 51/11/11 5/10/10 6/12/12
f 51/11/11 6/12/12 50/13/13
f 50/13/13 6/12/12 7/14/14
f 50/13/13 7/14/14 49/15/15
f 49/15/15 7/14/14 8/16/16
f 49/15/15 8/16/16 48/17/17
f 48/17/17 8/16/16 9/18/18
f 48/17/17 9/18/18 47/19/19
f 47/19/19 9/18/18 10/20/20
f 47/19/19 10/20/20 46/21/21
f 46/21/21 10/20/20 11/22/22
f 46/21/21 11/22/22 45/23/23
f 45/23/23 11/22/22 12/24/24
f 45/23/23 12/24/24 44/25/25
f 44/25/25 12/24/24 13/26/26
f 44/25/25 13/26/26 43/27/27
f 43/27/27 13/26/26 14/28/28
f 43/27/27 14/28/28 42/29/29
f 42/29/29 14/28/28 15/30/30
f 42/29/29 15/30/30 41/31/31
f 41/31/31 15/30/30 16/32/32
f 41/31/31 16/32/32 40/33/33
f 40/33/33 16/32/32 17/34/34
f 40/33/33 17/34/34 39/35/35
f 39/35/35 17/34/34 18/36/36
f 39/35/35 18/36/36 38/37/37
f 38/37/37 18/36/36 19/38/38
f 38/37/37 19/38/38 37/39/39
f 37/39/39 19/38/38 20/40/40
f 37/39/39 20/40/40 36/41/41
f 36/41/41 20/40/40 21/42/42
f 36/41/41 21/42/42 35/43/43
f 35/43/43 21/42/42 22/44/44
f 35/43/43 22/44/44 34/45/45
f 34/45/45 22/44/44 23/46/46
f 34/45/45 23/46/46 33/47/47
f 33/47/47 23/46/46 24/48/48
f 33/47/47 24/48/48 32/49/49
f 32/49/49 24/48/48 25/50/50
f 32/49/49 25/50/50 31/51/51
f 31/51/51 25/50/50 26/52/52
f 31/51/51 26/52/52 30/53/53
f 30/53/53 26/52/52 27/54/54
f 30/53/53 27/54/54 29/55/55
f 29/55/55 27/54/54 28/56/56
f 57/57/57 1/58/58 58/59/59
f 58/59/59 1/58/58 56/60/60
f 59/61/61 60/62/62 94/63/63
f 94/63/63 60/62/62 93/64/64
f 93/64/64 60/62/62 61/65/65
f 93/64/64 61/65/65 92/66/66
f 92/66/66 61/65/65 62/67/67
f 92/66/66 62/67/67 91/68/68
f 91/68/68 62/67/67 63/69/69
f 91/68/68 63/69/69 90/70/70
f 90/70/70 63/69/69 64/71/71
f 90/70/70 64/71/71 89/72/72
f 89/72/72 64/71/71 65/73/73
f 89/72/72 65/73/73 88/74/74
f 88/74/74 65/73/73 66/75/75
f 88/74/74 66/75/75 87/76/76
f 87/76/76 66/75/75 67/77/77
f 87/76/76 67/77/77 86/78/78
f 86/78/78 67/77/77 68/79/79
f 86/78/78 68/79/79 85/80/80
f 85/80/80 68/79/79 69/81/81
f 85/80/80 69/81/81 84/82/82
f 84/82/82 69/81/81 70/83/83
f 84/82/82 70/83/83 83/84/84
f 83/84/84 70/83/83 71/85/85
f 83/84/84 71/85/85 82/86/86
f 82/86/86 71/85/85 72/87/87
f 82/86/86 72/87/87 81/88/88
f 81/88/88 72/87/87 73/89/89
f 81/88/88 73/89/89 80/90/90
f 80/90/90 73/89/89 74/91/91
f 80/90/90 74/91/91 79/92/92
f 79/92/92 74/91/91 75/93/93
f 79/92/92 75/93/93 78/94/94
f 78/94/94 75/93/93 76/95/95
f 78/94/94 76/95/95 77/96/96
f 77/96/96 76/95/95 58/97/97
f 58/97/97 76/95/95 57/98/98
f 28/99/99 59/100/100 29/101/101
f 29/101/101 59/100/100 94/102/102
f 29/103/103 94/104/104 30/105/105
f 30/105/105 94/104/104 93/106/106
f 30/105/105 93/106/106 31/107/107
f 31/107/107 93/106/106 32/108/108
f 32/108/108 93/106/106 92/109/109
f 32/108/108 92/109/109 33/110/110
f 33/110/110 92/109/109 91/111/111
f 33/110/110 91/111/111 34/112/112
f 34/112/112 91/111/111 35/113/113
f 35/113/113 91/111/111 90/114/114
f 35/113/113 90/114/114 36/115/115
f 36/115/115 90/114/114 37/116/116
f 37/116/116 90/114/114 89/117/117
f 37/116/116 89/117/117 38/118/118
f 38/118/118 89/117/117 88/119/119
f 38/118/118 88/119/119 39/120/120
f 39/120/120 88/119/119 40/121/121
f 40/121/121 88/119/119 87/122/122
f 40/121/121 87/122/122 41/123/123
f 41/123/123 87/122/122 42/124/124
f 42/124/124 87/122/122 43/125/125
f 43/125/125 87/122/122 44/126/126
f 44/126/126 87/122/122 45/127/127
f 45/127/127 87/122/122 46/128/128
f 46/128/128 87/122/122 47/129/129
f 47/129/129 87/122/122 48/130/130
f 48/130/130 87/122/122 49/131/131
f 49/131/131 87/122/122 86/132/132
f 49/131/131 86/132/132 50/133/133
f 50/133/133 86/132/132 51/134/134
f 51/134/134 86/132/132 52/135/135
f 52/135/135 86/132/132 53/136/136
f 53/136/136 86/132/132 54/137/137
f 54/137/137 86/132/132 55/138/138
f 55/138/138 86/132/132 56/139/139
f 56/139/139 86/132/132 85/140/140
f 56/139/139 85/140/140 84/141/141
f 84/141/141 83/142/142 56/139/139
f 56/139/139 83/142/142 82/143/143
f 56/139/139 82/143/143 81/144/144
f 81/144/144 80/145/145 56/139/139
f 56/139/139 80/145/145 79/146/146
f 56/139/139 79/146/146 78/147/147
f 78/147/147 77/148/148 56/139/139
f 56/139/139 77/148/148 58/149/149
f 28/150/150 27/151/151 59/152/152
f 59/152/152 27/151/151 60/153/153
f 60/153/153 27/151/151 26/154/154
f 60/153/153 26/154/154 25/155/155
f 60/153/153 25/155/155 61/156/156
f 61/156/156 25/155/155 24/157/157
f 61/156/156 24/157/157 62/158/158
f 62/158/158 24/157/157 23/159/159
f 62/158/158 23/159/159 22/160/160
f 62/158/158 22/160/160 63/161/161
f 63/161/161 22/160/160 21/162/162
f 63/161/161 21/162/162 20/163/163
f 63/161/161 20/163/163 64/164/164
f 64/164/164 20/163/163 19/165/165
f 64/164/164 19/165/165 65/166/166
f 65/166/166 19/165/165 18/167/167
f 65/166/166 18/167/167 17/168/168
f 65/166/166 17/168/168 66/169/169
f 66/169/169 17/168/168 16/170/170
f 66/169/169 16/170/170 15/171/171
f 15/171/171 14/172/172 66/169/169
f 66/169/169 14/172/172 13/173/173
f 66/169/169 13/173/173 12/174/174
f 12/174/174 11/175/175 66/169/169
f 66/169/169 11/175/175 10/176/176
f 66/169/169 10/176/176 9/177/177
f 9/177/177 8/178/178 66/169/169
f 66/169/169 8/178/178 67/179/179
f 67/179/179 8/178/178 7/180/180
f 67/179/179 7/180/180 6/181/181
f 6/181/181 5/182/182 67/179/179
f 67/179/179 5/182/182 4/183/183
f 67/179/179 4/183/183 3/184/184
f 3/184/184 2/185/185 67/179/179
f 67/179/179 2/185/185 1/186/186
f 67/179/179 1/186/186 68/187/187
f 68/187/187 1/186/186 69/188/188
f 69/188/188 1/186/186 70/189/189
f 70/189/189 1/186/186 71/190/190
f 71/190/190 1/186/186 72/191/191
f 72/191/191 1/186/186 73/192/192
f 73/192/192 1/186/186 74/193/193
f 74/193/193 1/186/186 75/194/194
f 75/194/194 1/186/186 76/195/195
f 76/195/195 1/186/186 57/196/196

# 94 vertices
# 196 texture params
# 196 normals
# 184 facets

# 1 groups
